<svg xmlns="http://www.w3.org/2000/svg" xmlns:xlink="http://www.w3.org/1999/xlink" viewBox="0 0 2788.49 2800"><defs><style>.cls-1{fill:url(#linear-gradient);}.cls-2{fill:#bdd0fb;}.cls-3{fill:url(#linear-gradient-2);}.cls-4{fill:#91b3fa;}.cls-5{fill:url(#linear-gradient-3);}.cls-6{fill:url(#linear-gradient-4);}.cls-7{fill:url(#linear-gradient-5);}.cls-8{fill:url(#linear-gradient-6);}.cls-9{fill:url(#linear-gradient-7);}.cls-10{fill:url(#linear-gradient-8);}.cls-11{fill:url(#linear-gradient-9);}.cls-12{fill:url(#linear-gradient-10);}.cls-13{fill:url(#linear-gradient-11);}.cls-14{fill:url(#linear-gradient-12);}.cls-15{fill:url(#linear-gradient-13);}.cls-16{fill:url(#linear-gradient-14);}.cls-17{fill:url(#linear-gradient-15);}.cls-18{fill:url(#linear-gradient-16);}.cls-19{fill:url(#linear-gradient-17);}.cls-20{fill:url(#linear-gradient-18);}.cls-21{fill:url(#linear-gradient-19);}.cls-22{fill:url(#linear-gradient-20);}.cls-23{fill:url(#linear-gradient-21);}.cls-24{fill:url(#linear-gradient-22);}.cls-25{fill:url(#linear-gradient-23);}.cls-26{fill:url(#linear-gradient-24);}.cls-27{fill:url(#linear-gradient-25);}.cls-28{fill:url(#linear-gradient-26);}.cls-29{fill:url(#linear-gradient-27);}.cls-30{fill:url(#linear-gradient-28);}.cls-31{fill:url(#linear-gradient-29);}.cls-32{fill:url(#linear-gradient-30);}.cls-33{fill:url(#linear-gradient-31);}.cls-34{fill:url(#linear-gradient-32);}.cls-35{fill:url(#linear-gradient-33);}</style><linearGradient id="linear-gradient" x1="3040.11" y1="3181.88" x2="1098.79" y2="1115.31" gradientUnits="userSpaceOnUse"><stop offset="0" stop-color="#dae3fe"/><stop offset="1" stop-color="#e9effd"/></linearGradient><linearGradient id="linear-gradient-2" x1="-2844.23" y1="168.01" x2="-5390.65" y2="1988.56" gradientTransform="matrix(-1, -0.08, -0.08, 1, -2865.45, -70.11)" xlink:href="#linear-gradient"/><linearGradient id="linear-gradient-3" x1="1592.08" y1="2400.52" x2="1501.07" y2="3917.32" gradientUnits="userSpaceOnUse"><stop offset="0" stop-color="#09005d"/><stop offset="1" stop-color="#1a0f91"/></linearGradient><linearGradient id="linear-gradient-4" x1="1518.36" y1="-681.59" x2="1518.36" y2="1381.27" xlink:href="#linear-gradient-3"/><linearGradient id="linear-gradient-5" x1="248.37" y1="2153.21" x2="2627.82" y2="980.33" gradientUnits="userSpaceOnUse"><stop offset="0" stop-color="#4f52ff"/><stop offset="1" stop-color="#4042e2"/></linearGradient><linearGradient id="linear-gradient-6" x1="1744.99" y1="1090.38" x2="1643.86" y2="2010.58" xlink:href="#linear-gradient-3"/><linearGradient id="linear-gradient-7" x1="807.99" y1="552.99" x2="1543.35" y2="552.99" xlink:href="#linear-gradient"/><linearGradient id="linear-gradient-8" x1="712.9" y1="730.49" x2="1815.94" y2="730.49" xlink:href="#linear-gradient"/><linearGradient id="linear-gradient-9" x1="807.99" y1="898.48" x2="1911.03" y2="898.48" xlink:href="#linear-gradient"/><linearGradient id="linear-gradient-10" x1="903.08" y1="1066.48" x2="2006.12" y2="1066.48" xlink:href="#linear-gradient"/><linearGradient id="linear-gradient-11" x1="1026.69" y1="1332.73" x2="2129.74" y2="1332.73" xlink:href="#linear-gradient"/><linearGradient id="linear-gradient-12" x1="1118.61" y1="1500.72" x2="2221.66" y2="1500.72" xlink:href="#linear-gradient"/><linearGradient id="linear-gradient-13" x1="1169.33" y1="1662.37" x2="2272.37" y2="1662.37" xlink:href="#linear-gradient"/><linearGradient id="linear-gradient-14" x1="1216.87" y1="1922.29" x2="2319.92" y2="1922.29" xlink:href="#linear-gradient"/><linearGradient id="linear-gradient-15" x1="-11925.57" y1="2740.05" x2="-11826.67" y2="2740.05" gradientTransform="matrix(-1, 0.05, 0.05, 1, -9691.92, 619.17)" xlink:href="#linear-gradient-3"/><linearGradient id="linear-gradient-16" x1="-11925.11" y1="1417.08" x2="-11885" y2="1417.08" gradientTransform="matrix(-0.99, -0.11, -0.11, 0.99, -9340.51, -31.48)" gradientUnits="userSpaceOnUse"><stop offset="0" stop-color="#febbba"/><stop offset="1" stop-color="#ff928e"/></linearGradient><linearGradient id="linear-gradient-17" x1="-11692.99" y1="2416.29" x2="-11537.81" y2="2416.29" gradientTransform="matrix(-1, 0.03, 0.03, 1, -9607.37, 750.31)" xlink:href="#linear-gradient-3"/><linearGradient id="linear-gradient-18" x1="-11589.22" y1="3146.13" x2="-11549.33" y2="3146.13" gradientTransform="matrix(-0.99, 0.14, 0.14, 0.99, -9758.44, 1158.29)" xlink:href="#linear-gradient-16"/><linearGradient id="linear-gradient-19" x1="2437.06" y1="2225.52" x2="3480.33" y2="994.79" xlink:href="#linear-gradient-3"/><linearGradient id="linear-gradient-20" x1="2488.73" y1="2255.71" x2="3393.62" y2="2847.18" xlink:href="#linear-gradient-5"/><linearGradient id="linear-gradient-21" x1="2192.24" y1="1279.69" x2="2293.35" y2="743.8" gradientUnits="userSpaceOnUse"><stop offset="0" stop-color="#fe7062"/><stop offset="1" stop-color="#ff928e"/></linearGradient><linearGradient id="linear-gradient-22" x1="-11458.22" y1="254.44" x2="-11309.98" y2="254.44" xlink:href="#linear-gradient-16"/><linearGradient id="linear-gradient-23" x1="1915.92" y1="2248.75" x2="3486.5" y2="31.07" xlink:href="#linear-gradient-21"/><linearGradient id="linear-gradient-24" x1="-11122.52" y1="286.76" x2="-11442.86" y2="685.28" xlink:href="#linear-gradient-16"/><linearGradient id="linear-gradient-25" x1="-11061.79" y1="335.56" x2="-11382.13" y2="734.1" xlink:href="#linear-gradient-16"/><linearGradient id="linear-gradient-26" x1="-11482.91" y1="45.93" x2="-11793.15" y2="615.96" xlink:href="#linear-gradient-16"/><linearGradient id="linear-gradient-27" x1="-9067.91" y1="-4031.08" x2="-9205.02" y2="-3849.69" gradientTransform="matrix(-0.75, -0.66, -0.66, 0.75, -7304.28, -1598.96)" xlink:href="#linear-gradient-16"/><linearGradient id="linear-gradient-28" x1="-9172.62" y1="-3987.32" x2="-9008.84" y2="-3987.32" gradientTransform="matrix(-0.75, -0.66, -0.66, 0.75, -7304.28, -1598.96)" xlink:href="#linear-gradient-3"/><linearGradient id="linear-gradient-29" x1="-9268.72" y1="-3887.43" x2="-9158.75" y2="-4000.27" gradientTransform="matrix(-0.75, -0.66, -0.66, 0.75, -7304.28, -1598.96)" xlink:href="#linear-gradient-16"/><linearGradient id="linear-gradient-30" x1="3225.73" y1="-59.26" x2="1992.19" y2="1120.36" xlink:href="#linear-gradient-21"/><linearGradient id="linear-gradient-31" x1="2103.22" y1="228.22" x2="2359.37" y2="-978.36" gradientTransform="matrix(1, 0, 0, 1, 0, 0)" xlink:href="#linear-gradient-16"/><linearGradient id="linear-gradient-32" x1="1749.57" y1="153.15" x2="2005.72" y2="-1053.43" gradientTransform="matrix(1, 0, 0, 1, 0, 0)" xlink:href="#linear-gradient-16"/><linearGradient id="linear-gradient-33" x1="2000.03" y1="206.31" x2="2256.17" y2="-1000.27" gradientTransform="translate(239 -283.8) rotate(9.78)" xlink:href="#linear-gradient-16"/></defs><g id="레이어_2" data-name="레이어 2"><g id="Illustration"><path class="cls-1" d="M2457.23,2352.78c-71.66,73.87-135.79,117.29-184.88,150.07C1793.53,2822.57,1246.19,2730.42,1077,2698.92c-273-50.81-503.49-86.66-701.51-265.56C-74.49,2026.85-52.61,1178.84,291.21,653.53,332,591.25,675.27,82.38,1223.79,10.67c13.42-1.75,23.43-2.75,32.2-3.68,84.85-9,610.69-56.4,1039.45,302.82,61.38,51.42,160.15,144.17,251.74,285.63C2882.09,1112.67,2883.15,1913.76,2457.23,2352.78Z"/><path class="cls-2" d="M510.94,1344.58S541.51,1063.37,418.12,977,52,822.49,77,417.1C91.64,179.77,94.55,75.7,94.45,30.21A26.77,26.77,0,0,1,128.37,4.32c121,33.57,512.18,162.71,572.8,442.34C773,778.17,510.94,1344.58,510.94,1344.58Z"/><path class="cls-3" d="M213.89,125c124.73,131.76,262.7,358,327.82,578,7.7,36,32.6,113.29,34.92,247.05,2.74,111.63-13.18,228-34.42,304.12a9.06,9.06,0,0,1-11.15,6.28c-8.27-2.31-6.39-11.26-6.34-11,28-130.76,34.95-295.87,9.1-447.57C500.17,615.39,405.64,429.39,305.08,269.91l-10.41-15.75c-78.2-120.12-96.6-122.52-87.73-129.68A5.15,5.15,0,0,1,213.89,125Z"/><path class="cls-4" d="M605.79,1889.46c15.76,11.69-123.52-249.88-114.21-618.61,4.38-173.75,43.07-385.32-38-484.58C386,703.66,105.78,696.22,13.66,696A13.59,13.59,0,0,0,3.13,718.27c36.11,43.78,111.9,145.31,120,235,10.64,118.24,104.34,209.5,196.48,246.52s141.91,65.64,160.29,227.31S561,1856.22,605.79,1889.46Z"/><path class="cls-2" d="M130.22,766.69C243,792.44,355.5,866.82,399.47,975.54l4.13,10.36c9.49,24.26,57.44,193.12,76.26,329.23a3.12,3.12,0,0,1-2.65,3.5,3.18,3.18,0,0,1-3.48-2.53c-16.23-77.93-41.8-177.65-63-252.6-22.48-81.67-38.52-137.13-112.39-201.06-82.54-69.39-169.63-91-169.38-90.94a2.49,2.49,0,0,1,1.25-4.81Z"/><polygon class="cls-5" points="1330.99 2170.45 1279.51 2632.22 1876.85 2632.22 1799.05 2170.45 1330.99 2170.45"/><path class="cls-6" d="M291.56,999.76V2088a165.09,165.09,0,0,0,160.83,165c397.48,10.25,1787.66,35.1,2166,29.52a121.48,121.48,0,0,0,119.59-118c7.29-252.81,19.14-860.74-24.71-1143a125,125,0,0,0-119.52-105.8c-333-10.66-1806.72-44.49-2184.92-36A120,120,0,0,0,291.56,999.76Z"/><path class="cls-7" d="M359.85,994.46V2028.37A95.64,95.64,0,0,0,454.06,2124L2564,2150.07a93.08,93.08,0,0,0,94.48-92.73L2662,1032.68a68.08,68.08,0,0,0-66.42-68.32L435.4,920.72A73.75,73.75,0,0,0,359.85,994.46Z"/><path class="cls-4" d="M2674.36,2192.91h-.06L359.79,2153.48a3.4,3.4,0,0,1,.11-6.79l2314.51,39.44a3.39,3.39,0,0,1,0,6.78Z"/><path class="cls-8" d="M2005.52,2726.69H1131.26c-23.75,0-41.58-16.91-37-35.07l11.22-44.36c3.37-13.35,18-23.14,35.48-23.69l842.82-26.3c18.21-.56,34.34,9.1,38.31,23l20.22,70.67C2047.58,2709.27,2029.65,2726.69,2005.52,2726.69Z"/><path class="cls-4" d="M964.58,2131.23,2445.1,2154.3c-.31-18.25-4.13-184.81-44.62-411.67-56.49-316.53-154.39-588.78-291-809.2C1998,753.47,1944.59,596,1919.44,495.54a1075.31,1075.31,0,0,1-22.78-116.69,69.93,69.93,0,0,0-69.21-60.64c-214.07-.31-1100.88-6.44-1336.24-8.56a75.45,75.45,0,0,0-75.88,81.4c12,153.17,67.57,494.3,315.35,894.16C951.5,1641.56,964.49,2126.09,964.58,2131.23Z"/><path class="cls-9" d="M842.85,518.12h665.63a34.87,34.87,0,0,1,0,69.74H842.85a34.87,34.87,0,0,1,0-69.74Z"/><path class="cls-10" d="M765.2,695.63h998.44c28.88,0,52.3,15.61,52.3,34.86s-23.42,34.87-52.3,34.87H765.2c-28.89,0-52.3-15.61-52.3-34.87S736.31,695.63,765.2,695.63Z"/><path class="cls-11" d="M860.29,863.62h998.44c28.88,0,52.3,15.61,52.3,34.86s-23.42,34.87-52.3,34.87H860.29c-28.89,0-52.3-15.61-52.3-34.87S831.4,863.62,860.29,863.62Z"/><path class="cls-12" d="M955.38,1031.61h998.44c28.88,0,52.3,15.61,52.3,34.87s-23.42,34.86-52.3,34.86H955.38c-28.89,0-52.3-15.61-52.3-34.86S926.49,1031.61,955.38,1031.61Z"/><path class="cls-13" d="M1079,1297.86h998.45c28.88,0,52.3,15.61,52.3,34.87s-23.42,34.86-52.3,34.86H1079c-28.88,0-52.3-15.61-52.3-34.86S1050.11,1297.86,1079,1297.86Z"/><path class="cls-14" d="M1170.91,1465.85h998.45c28.88,0,52.3,15.61,52.3,34.87s-23.42,34.87-52.3,34.87H1170.91c-28.88,0-52.3-15.61-52.3-34.87S1142,1465.85,1170.91,1465.85Z"/><path class="cls-15" d="M1221.63,1627.51h998.44c28.89,0,52.3,15.61,52.3,34.86s-23.41,34.87-52.3,34.87H1221.63c-28.89,0-52.3-15.61-52.3-34.87S1192.74,1627.51,1221.63,1627.51Z"/><path class="cls-16" d="M1269.17,1887.42h998.45c28.88,0,52.3,15.61,52.3,34.87s-23.42,34.86-52.3,34.86H1269.17c-28.88,0-52.3-15.61-52.3-34.86S1240.29,1887.42,1269.17,1887.42Z"/><path class="cls-17" d="M2341.56,2716.92s11.85,16.75,17.07,65a7.91,7.91,0,0,1-7.42,8.75l-85.84,4.36a5.07,5.07,0,0,1-5.15-6.42c4.27-15.14,17.64-52.21,50.53-74.67Z"/><path class="cls-18" d="M2353.19,2690.66l-9.39,40a7.68,7.68,0,0,1-7.41,5.94,67.64,67.64,0,0,1-18-2.21,12.59,12.59,0,0,1-8.92-13.57l4.41-39.11Z"/><path class="cls-19" d="M2145.52,2719.89s17.33,25,18.2,60.08a15.19,15.19,0,0,1-14.75,15.37L2015.56,2800a6.39,6.39,0,0,1-4.08-11.49c24.63-18.61,73.1-53.46,108.53-67.73Z"/><path class="cls-20" d="M2148.84,2677.3l-3.42,51.29a10.38,10.38,0,0,1-11.05,9.76,37.53,37.53,0,0,1-12.3-3.27,11.92,11.92,0,0,1-6.93-11.32l2.32-61.89Z"/><path class="cls-21" d="M2414.44,2000.79s32.27,35.63,34.73,74.39-93,653.52-93,653.52-36.5,1.92-53.71-11.35c0,0,23.29-403.33,17.09-497.84,0,0-134.14,405.4-166.79,477.7,0,0-35,.3-45.38-7.52,0,0,83.56-535.69,123.09-628.15Z"/><path class="cls-22" d="M2322.47,2207.93a5.2,5.2,0,0,0,4.87-3.35l21.07-54.75,33.43-16.48a5.23,5.23,0,0,0-4.63-9.38L2342,2141.36a5.24,5.24,0,0,0-2.57,2.81l-21.8,56.66a5.23,5.23,0,0,0,4.88,7.1Z"/><path class="cls-23" d="M2101.12,1604c152.24,4.48,188.14,40.14,188.14,40.14l-85.38,106.25S2056,1730.78,1959.05,1637c22.28-19.16,38.75-41.25,49.68-58.67C2034.83,1592.75,2065.61,1603,2101.12,1604Z"/><path class="cls-24" d="M1889.9,1356a4.65,4.65,0,0,1,9-.77l14.62,43.23a43.08,43.08,0,0,1,.54,25.84l-9.44,23.14a41.49,41.49,0,0,0,4.71,33.79c15.19,24.1,48.3,68.72,99.4,97-10.93,17.42-27.4,39.51-49.68,58.67-35.58-34.42-64.31-78.82-76.36-135.91a20.32,20.32,0,0,1-12-21.67Z"/><path class="cls-25" d="M2044,1664.77c59.54-51.23,163.59-65.67,223.35-69.69a54,54,0,0,1,56.18,40.83c18.37,73.8,69.26,266.17,79.58,299.41,8.46,27.27,17.5,54,23.27,70.7a19.17,19.17,0,0,1-11.75,24.38c-51.94,18.19-143.61,35.06-180.73,41.49a12.4,12.4,0,0,1-14.44-13.64,38.82,38.82,0,0,0-3.26-20.44l-110.53-242.16c-95.44,84.5-170.7,84.72-225.45,57.7a432,432,0,0,0,28.94-87C1995.1,1761.41,2044,1664.77,2044,1664.77Z"/><path class="cls-26" d="M1771.58,1734.85l17.5-18.58c45.45,39.39,85.72,52,120.08,50.07a432,432,0,0,1-28.94,87C1808.09,1817.75,1771.58,1734.85,1771.58,1734.85Z"/><path class="cls-27" d="M1782.27,1736.42l-86.1-6.32-74-53c12.12-5.82,74.55,15.91,74.55,15.91s68.12-2.57,86.25-.55c15,1.67,10.46,23.08,8.47,30.29-.4,1.47-.7,2.35-.7,2.35Z"/><path class="cls-28" d="M2198.65,1480.93l32.79,115.46s-56,30.11-97.45,22l-11.38-101.79Z"/><path class="cls-29" d="M2130.74,1397.07c-1.21,1.35-45.8,112.24-45.8,112.24l63.86,24.12,57.88-98.82S2150.85,1374.46,2130.74,1397.07Z"/><path class="cls-30" d="M2180.14,1447.62,2153.75,1502a8.7,8.7,0,0,1-1.27,1.91c-3.15,3.55-14.89,15-25.84,2.26-9.94-11.54-19.18-21.92-28.49-24.67a8.44,8.44,0,0,0-10.23,5c-4.05,10.07-12.75,33-17.28,54a8.42,8.42,0,0,0,5.79,9.79c12.56,3.88,39.29,11.34,62.2,12.3a8.44,8.44,0,0,0,7.63-4.08c7.8-13,31.67-52.34,40-62.28,7.84-9.33,24.23-7.19,31-5.81a8.28,8.28,0,0,0,6.41-1.32c6.62-4.6,19.61-16.79,5.3-34.76a8.44,8.44,0,0,1,1.56-12.07c7.66-5.74,16.37-16.45,6.44-32.08-10.09-15.89-25.83-15.32-35.71-12.92a8.46,8.46,0,0,1-9.69-4.88c-1-2.13-2.86-3.88-6.48-4a8.33,8.33,0,0,1-7.87-9.47c1.22-9.31-.79-21.48-16.41-28.34-27.71-12.18-48.75,13.55-52.85,34s26.68,32,45.47,32.7c14.29.54,23.22,15.77,26.69,23A8.42,8.42,0,0,1,2180.14,1447.62Z"/><path class="cls-31" d="M2176.48,1515.91s8.69-35.42,23.84-35.5,28.31,13.86,11.17,32.35C2190.18,1535.77,2176.48,1515.91,2176.48,1515.91Z"/><path class="cls-32" d="M1206.5,1498.28l187,92.1a49.31,49.31,0,0,1,27,37.07l30.13,206.27c5.9,40.39,55.56,56.48,84,27.23L1680,1711.56a49.25,49.25,0,0,1,43.59-14.2l205.48,35.08c40.24,6.88,70.89-35.38,51.87-71.5l-97.15-184.44a49.25,49.25,0,0,1,0-45.84l96.86-184.58c19-36.15-11.75-78.36-52-71.43l-205.43,35.4a49.28,49.28,0,0,1-43.61-14.13L1534,1046.76c-28.53-29.22-78.16-13-84,27.36l-29.81,206.31a49.27,49.27,0,0,1-26.92,37.11l-186.86,92.4C1169.84,1428,1169.88,1480.23,1206.5,1498.28Z"/><path class="cls-33" d="M1699.24,1650.38a96.55,96.55,0,0,1,32.4,0l134.19,22.9a37.31,37.31,0,0,0,39.3-54.16l-63.45-120.46a96.88,96.88,0,0,1-.07-90.17L1904.87,1288a37.31,37.31,0,0,0-39.38-54.11l-68.55,11.81,1.8,10.43,68.55-11.81a26.73,26.73,0,0,1,28.21,38.76l-63.26,120.55a107.49,107.49,0,0,0,.07,100l63.44,120.45a26.72,26.72,0,0,1-28.14,38.8L1733.42,1640a107,107,0,0,0-35.93,0Z"/><path class="cls-34" d="M1495.76,1774.1a37.4,37.4,0,0,0,55.18,1.81l72.65-74.64-7.59-7.38-72.65,74.63a26.71,26.71,0,0,1-45.59-14.78l-19.68-134.69a108.55,108.55,0,0,0-58.86-80.89L1297.1,1478a26.73,26.73,0,0,1,0-47.94l122-60.35a107.38,107.38,0,0,0,58.71-81L1497.3,1154a26.72,26.72,0,0,1,45.57-14.85L1638,1236.6a107,107,0,0,0,34.32,23.58l4.18-9.71a96.41,96.41,0,0,1-30.92-21.28l-95.11-97.42a37.31,37.31,0,0,0-63.62,20.73l-19.49,134.75a96.82,96.82,0,0,1-52.93,73l-122,60.35a37.32,37.32,0,0,0,.05,66.93l122.13,60.15a97.78,97.78,0,0,1,53,72.92l19.68,134.69A37.36,37.36,0,0,0,1495.76,1774.1Z"/><rect class="cls-35" x="1756.92" y="1249.1" width="41.22" height="10.58" transform="matrix(0.99, -0.17, 0.17, 0.99, -187.3, 320.28)"/></g></g></svg>