<svg xmlns="http://www.w3.org/2000/svg" xmlns:xlink="http://www.w3.org/1999/xlink" viewBox="0 0 2800.2 2775.66"><defs><style>.cls-1{fill:url(#linear-gradient);}.cls-2{fill:url(#linear-gradient-2);}.cls-3{opacity:0.7;}.cls-4{fill:#7d97f4;}.cls-5{fill:#91b3fa;}.cls-6{fill:url(#linear-gradient-3);}.cls-7{fill:url(#linear-gradient-4);}.cls-12,.cls-14,.cls-15,.cls-8,.cls-9{fill:#fff;}.cls-9{opacity:0.23;}.cls-10{fill:url(#linear-gradient-5);}.cls-11{fill:url(#linear-gradient-6);}.cls-12,.cls-16{opacity:0.78;}.cls-13{opacity:0.74;}.cls-14{opacity:0.48;}.cls-15{opacity:0.36;}.cls-17{fill:url(#linear-gradient-7);}.cls-18{fill:url(#linear-gradient-8);}.cls-19{fill:url(#linear-gradient-9);}.cls-20{fill:url(#linear-gradient-10);}.cls-21{fill:url(#linear-gradient-11);}.cls-22{fill:url(#linear-gradient-12);}.cls-23{fill:url(#linear-gradient-13);}.cls-24{fill:url(#linear-gradient-14);}.cls-25{fill:url(#linear-gradient-15);}.cls-26{fill:url(#linear-gradient-16);}.cls-27{fill:url(#linear-gradient-17);}.cls-28{fill:url(#linear-gradient-18);}.cls-29{fill:url(#linear-gradient-19);}.cls-30{fill:url(#linear-gradient-20);}.cls-31{fill:url(#linear-gradient-21);}.cls-32{fill:url(#linear-gradient-22);}.cls-33{fill:url(#linear-gradient-23);}.cls-34{fill:url(#linear-gradient-24);}.cls-35{fill:url(#linear-gradient-25);}.cls-36{fill:url(#linear-gradient-26);}.cls-37{fill:url(#linear-gradient-27);}.cls-38{fill:url(#linear-gradient-28);}</style><linearGradient id="linear-gradient" x1="2938.51" y1="3101.6" x2="1046.17" y2="1087.17" gradientUnits="userSpaceOnUse"><stop offset="0" stop-color="#dae3fe"/><stop offset="1" stop-color="#e9effd"/></linearGradient><linearGradient id="linear-gradient-2" x1="68.09" y1="786.41" x2="675.25" y2="786.41" gradientUnits="userSpaceOnUse"><stop offset="0" stop-color="#4f52ff"/><stop offset="1" stop-color="#4042e2"/></linearGradient><linearGradient id="linear-gradient-3" x1="1170.02" y1="2451.47" x2="1727.24" y2="779.82" gradientUnits="userSpaceOnUse"><stop offset="0" stop-color="#09005d"/><stop offset="1" stop-color="#1a0f91"/></linearGradient><linearGradient id="linear-gradient-4" x1="2914.23" y1="995.98" x2="-4074.73" y2="4844.46" gradientUnits="userSpaceOnUse"><stop offset="0" stop-color="#ff928e"/><stop offset="1" stop-color="#fe7062"/></linearGradient><linearGradient id="linear-gradient-5" x1="1543.69" y1="978.44" x2="1402.08" y2="2697.96" xlink:href="#linear-gradient-3"/><linearGradient id="linear-gradient-6" x1="2361.61" y1="276.75" x2="1986.92" y2="729.74" gradientTransform="translate(40.5 -25.73) rotate(1.97)" xlink:href="#linear-gradient-2"/><linearGradient id="linear-gradient-7" x1="1495.83" y1="1652.96" x2="1212.62" y2="3013.33" xlink:href="#linear-gradient-2"/><linearGradient id="linear-gradient-8" x1="1525.2" y1="1659.07" x2="1242" y2="3019.44" xlink:href="#linear-gradient-2"/><linearGradient id="linear-gradient-9" x1="2484.34" y1="1858.75" x2="2201.14" y2="3219.12" xlink:href="#linear-gradient-2"/><linearGradient id="linear-gradient-10" x1="2513.71" y1="1864.86" x2="2230.51" y2="3225.23" xlink:href="#linear-gradient-2"/><linearGradient id="linear-gradient-11" x1="1857.05" y1="2936.01" x2="2187.47" y2="2342.61" xlink:href="#linear-gradient-2"/><linearGradient id="linear-gradient-12" x1="1924.18" y1="2973.39" x2="2254.6" y2="2379.99" xlink:href="#linear-gradient-2"/><linearGradient id="linear-gradient-13" x1="1784.5" y1="2895.61" x2="2114.92" y2="2302.21" xlink:href="#linear-gradient-2"/><linearGradient id="linear-gradient-14" x1="1995.34" y1="2794.11" x2="1897.56" y2="2399.63" gradientUnits="userSpaceOnUse"><stop offset="0" stop-color="#febbba"/><stop offset="1" stop-color="#ff928e"/></linearGradient><linearGradient id="linear-gradient-15" x1="1902.76" y1="2541.7" x2="1872.8" y2="3001.09" xlink:href="#linear-gradient-2"/><linearGradient id="linear-gradient-16" x1="1790.78" y1="2412.09" x2="2421.27" y2="2088.42" xlink:href="#linear-gradient-14"/><linearGradient id="linear-gradient-17" x1="1689.54" y1="2198.66" x2="2171.08" y2="2198.66" xlink:href="#linear-gradient-3"/><linearGradient id="linear-gradient-18" x1="1613.64" y1="2522.84" x2="1583.68" y2="2982.23" xlink:href="#linear-gradient-2"/><linearGradient id="linear-gradient-19" x1="1894.56" y1="1470.19" x2="2316.93" y2="1842.33" xlink:href="#linear-gradient-3"/><linearGradient id="linear-gradient-20" x1="1425.08" y1="2869.47" x2="2112.89" y2="1905.19" xlink:href="#linear-gradient-4"/><linearGradient id="linear-gradient-21" x1="2021.75" y1="1832.95" x2="2000.25" y2="1695" xlink:href="#linear-gradient-14"/><linearGradient id="linear-gradient-22" x1="2.96" y1="3597.14" x2="192.88" y2="3726.14" gradientTransform="translate(-525.26 -1022.89) rotate(-41.9)" xlink:href="#linear-gradient-14"/><linearGradient id="linear-gradient-23" x1="1867.56" y1="1500.83" x2="2289.93" y2="1872.98" xlink:href="#linear-gradient-3"/><linearGradient id="linear-gradient-24" x1="14.35" y1="3580.38" x2="204.26" y2="3709.38" gradientTransform="translate(-525.26 -1022.89) rotate(-41.9)" xlink:href="#linear-gradient-14"/><linearGradient id="linear-gradient-25" x1="2145.18" y1="2071.82" x2="2548.95" y2="2071.82" xlink:href="#linear-gradient-14"/><linearGradient id="linear-gradient-26" x1="2065.32" y1="2212.98" x2="1811.13" y2="2282.64" gradientTransform="translate(-19.31 -78.06) rotate(-2.83)" xlink:href="#linear-gradient-3"/><linearGradient id="linear-gradient-27" x1="1808.82" y1="1866.03" x2="1628.47" y2="2056.66" xlink:href="#linear-gradient-3"/><linearGradient id="linear-gradient-28" x1="1798.53" y1="2202.86" x2="1515.33" y2="3563.24" xlink:href="#linear-gradient-2"/></defs><g id="레이어_2" data-name="레이어 2"><g id="Illustration"><path class="cls-1" d="M2370.34,2293.42c-69.86,72-132.36,114.33-180.22,146.29-466.74,311.64-1000.27,221.82-1165.23,191.12C758.76,2581.29,534.1,2546.35,341.08,2372-97.51,1975.71-76.18,1149.1,259,637,298.7,576.33,633.33,80.3,1168,10.4c13.08-1.71,22.84-2.68,31.38-3.58,82.72-8.76,595.29-55,1013.23,295.17,59.83,50.13,156.11,140.54,245.39,278.43C2784.48,1084.6,2785.51,1865.47,2370.34,2293.42Z"/><path class="cls-2" d="M547.45,1380.37s6.13-257.69-112.55-326.65S90.55,941.63,82.09,571.62C77.14,355,71.78,260.3,68.18,219A24.4,24.4,0,0,1,97,192.88c112.4,21.17,477.56,108.33,554.12,357.57C741.87,845.92,547.45,1380.37,547.45,1380.37Z"/><g class="cls-3"><path class="cls-4" d="M183.92,295.83C307.31,405.87,450,600.63,526,795.38c9.76,32.1,38.31,100.36,50.71,221.63,11.08,101.15,5.57,208-7.86,278.78a8.24,8.24,0,0,1-9.63,6.56c-7.69-1.46-6.67-9.73-6.6-9.47,15.33-120.88,9-271.33-26.17-407.08-44.9-166.69-145-328.3-248.61-465.37l-10.66-13.49c-80.25-103.06-97.14-103.82-89.64-111A4.69,4.69,0,0,1,183.92,295.83Z"/></g><path class="cls-4" d="M738.19,1875.79c16,7.88-152-203.48-204.67-535.43C508.71,1183.93,508.38,988,419.28,912.42c-74.16-62.86-326.52-23.17-409.09-8.09A12.38,12.38,0,0,0,4.43,926c39.6,33.26,124.3,111.7,146.37,190.75,29.09,104.2,128.16,170.48,216.84,188.41s138,35.35,181.23,177.18S692.56,1853.42,738.19,1875.79Z"/><path class="cls-5" d="M126.32,948.36c105.35,4.41,218.43,52.46,275.82,142.61l5.41,8.6C420.06,1119.74,491,1263.12,530.34,1382a2.82,2.82,0,0,1-1.8,3.57,2.88,2.88,0,0,1-3.53-1.69c-27.44-67.15-66.84-152.28-98.22-215.94-33.66-69.46-57.21-116.51-134-161.57C207.38,957.82,125.75,952.83,126,952.88a2.27,2.27,0,0,1,.33-4.52Z"/><path class="cls-6" d="M2608.8,2512.11a43.74,43.74,0,0,1-43.63,43.59H205.87a43.74,43.74,0,0,1-43.63-43.59L142.61,1156.29c0-24,28.24-70.78,80-67.26l2305.78-59.66a109.93,109.93,0,0,1,112.81,112.45Z"/><path class="cls-7" d="M2565.73,2470.3a41.4,41.4,0,0,1-41.28,41.27H262.76a41.39,41.39,0,0,1-41.27-41.27L203,1239.46c2.18-74.06,67.12-100.69,106.49-99.11l2209.93-59.29a77.15,77.15,0,0,1,79.21,79.07Z"/><path class="cls-8" d="M245.93,1883.41a3.9,3.9,0,0,1-3.89-3.84l-1.47-99.82a3.9,3.9,0,0,1,7.79-.11l1.47,99.82a3.9,3.9,0,0,1-3.84,4Z"/><path class="cls-8" d="M242.34,1638.8a3.91,3.91,0,0,1-3.9-3.84l-5.61-382.3c.12-25.7,8-46.23,23.55-61.1,28.19-27,72.25-25.65,74.12-25.58l705.67-18.93a3.81,3.81,0,0,1,4,3.79,3.88,3.88,0,0,1-3.79,4l-705.9,18.94c-2-.08-42.88-1.33-68.71,23.42-13.93,13.34-21,32-21.15,55.43l5.61,382.23a3.88,3.88,0,0,1-3.83,4Z"/><path class="cls-9" d="M321.13,2402c2.37-101.72,1.49-1002.57-4.35-1080.37s115.33-92.39,301.36-101.15,1755.66-43.42,1796.07-46.69c90.85-7.37,109.65,128.41,100.56,423.19-6.83,221.45-18.14,586.27-23.35,754a92.58,92.58,0,0,1-92.36,89.73c-377.71,1-1825.39,5.19-1921.76,8.06C366.39,2452.12,320.19,2442.35,321.13,2402Z"/><path class="cls-10" d="M2740.63,2668.25H78.24a59.74,59.74,0,0,1-59.57-59.56h0a59.75,59.75,0,0,1,59.57-59.57H2740.63a59.75,59.75,0,0,1,59.57,59.57h0A59.74,59.74,0,0,1,2740.63,2668.25Z"/><path class="cls-5" d="M2213.52,205.32,630.88,195.63a90.6,90.6,0,0,0-91,95.08L648.72,2539.27H2409.91l97.79-2009Z"/><path class="cls-11" d="M2279.33,520.67A90.59,90.59,0,0,1,2192.2,423l17-214.71L2508,529Z"/><path class="cls-12" d="M1447.21,637c130.08-.63,629.44-4,755.53-4.8,15.91-.11,28.48,16.43,27.79,36.5h0c-.65,19.11-13.16,34.38-28.3,34.57L1447,712.71c-14.55.18-26.63-13.66-27.87-31.93l-.32-4.62C1417.42,655.27,1430.58,637.1,1447.21,637Z"/><path class="cls-12" d="M1440.82,794.74c130.08-.63,629.44-4,755.53-4.8,15.91-.1,28.49,16.43,27.79,36.5h0c-.65,19.11-13.16,34.38-28.3,34.57l-755.2,9.42c-14.55.18-26.63-13.65-27.87-31.92l-.31-4.62C1411,813,1424.19,794.82,1440.82,794.74Z"/><path class="cls-12" d="M875.7,1017c219.41.16,1061.73-.14,1274.42-.22,26.83,0,48.61,16.61,48.13,36.69h0c-.46,19.11-21,34.31-46.57,34.41L878,1092.75c-24.53.09-45.39-13.83-48.1-32.11l-.69-4.63C826.06,1035.1,847.64,1017,875.7,1017Z"/><path class="cls-12" d="M865.56,1182.55c170.79-.74,826.45-4.48,992-5.42,20.89-.12,37.72,16.41,37.21,36.48h0c-.49,19.11-16.61,34.4-36.49,34.6l-991.49,10c-19.1.19-35.23-13.64-37.22-31.91l-.51-4.62C826.8,1200.83,843.72,1182.65,865.56,1182.55Z"/><path class="cls-12" d="M873.54,1399.28c219.42.16,1061.73-.14,1274.43-.22,26.83,0,48.6,16.61,48.12,36.69h0c-.46,19.11-21,34.31-46.57,34.41L875.8,1475c-24.53.09-45.38-13.83-48.1-32.11l-.69-4.63C823.9,1417.36,845.48,1399.26,873.54,1399.28Z"/><path class="cls-12" d="M854.45,1567.57c171.6.31,830.36.62,996.71.69,21,0,37.8,16.65,37.16,36.72h0c-.6,19.11-16.89,34.29-36.86,34.37l-996.21,3.93c-19.19.08-35.32-13.86-37.21-32.14l-.48-4.62C815.4,1585.61,832.5,1567.53,854.45,1567.57Z"/><path class="cls-12" d="M862.72,1789.34c219.42.16,1061.73-.14,1274.43-.22,26.83,0,48.61,16.61,48.12,36.69h0c-.45,19.11-21,34.31-46.56,34.41L865,1865.07c-24.54.09-45.39-13.83-48.11-32.11l-.69-4.63C813.09,1807.42,834.66,1789.32,862.72,1789.34Z"/><g class="cls-13"><path class="cls-12" d="M849.47,1955.64c171.6.31,830.36.62,996.71.69,21,0,37.8,16.65,37.16,36.72h0c-.6,19.11-16.89,34.29-36.86,34.37l-996.21,3.93c-19.19.08-35.32-13.86-37.21-32.14l-.48-4.62C810.42,1973.68,827.53,1955.6,849.47,1955.64Z"/></g><path class="cls-14" d="M875.7,2174.87c219.41.15,1061.73-.14,1274.42-.22,26.83,0,48.61,16.61,48.13,36.68h0c-.46,19.12-21,34.32-46.57,34.42L878,2250.6c-24.53.09-45.39-13.83-48.1-32.11l-.69-4.63C826.06,2193,847.64,2174.85,875.7,2174.87Z"/><path class="cls-15" d="M863.28,2359.18c169.44,0,819.87-.85,984.12-1.07,20.72,0,37.34,16.58,36.74,36.65h0c-.58,19.11-16.65,34.32-36.37,34.44l-983.62,5.69c-18.95.11-34.89-13.79-36.77-32.07l-.48-4.63C824.74,2377.29,841.62,2359.18,863.28,2359.18Z"/><g class="cls-16"><path class="cls-8" d="M1023.76,700.44l-53.2,161.14h-68.4l174.05-512.29H1156l174.82,512.29h-70.69l-54.73-161.14Zm168-51.68L1141.58,501.3c-11.41-33.44-19-63.84-26.61-93.48h-1.52c-7.6,30.4-16,61.56-25.84,92.72l-50.16,148.22Z"/></g><path class="cls-17" d="M1207.57,2775.66a10.66,10.66,0,0,1-4.56-1c-5.86-2.75-8.57-10.17-6-16.57l242.3-614.78c2.52-6.39,9.31-9.35,15.17-6.6s8.57,10.17,6,16.57L1218.19,2768A11.58,11.58,0,0,1,1207.57,2775.66Z"/><path class="cls-18" d="M1480.52,2775.66a11.57,11.57,0,0,1-10.61-7.63l-242.3-614.78c-2.52-6.4.19-13.82,6.05-16.57s12.65.2,15.17,6.6l242.3,614.78c2.52,6.4-.19,13.82-6.05,16.57A10.63,10.63,0,0,1,1480.52,2775.66Z"/><path class="cls-19" d="M2238.92,2775.66a10.69,10.69,0,0,1-4.56-1c-5.86-2.75-8.57-10.17-6.05-16.57l242.3-614.78c2.52-6.39,9.31-9.35,15.18-6.6s8.56,10.17,6,16.57L2249.54,2768A11.57,11.57,0,0,1,2238.92,2775.66Z"/><path class="cls-20" d="M2511.87,2775.66a11.57,11.57,0,0,1-10.61-7.63L2259,2153.25c-2.52-6.4.19-13.82,6.05-16.57s12.65.2,15.18,6.6l242.29,614.78c2.52,6.4-.19,13.82-6.05,16.57A10.63,10.63,0,0,1,2511.87,2775.66Z"/><rect class="cls-21" x="2076.43" y="2361.38" width="28.65" height="309.8"/><path class="cls-22" d="M2216.21,2677.16H1965.3v-1.35a17.31,17.31,0,0,1,17.3-17.3h215A18.65,18.65,0,0,1,2216.21,2677.16Z"/><rect class="cls-23" x="1937.98" y="2291.97" width="315.47" height="89.47" rx="30.81"/><path class="cls-24" d="M1879.27,2154.81s-42.57,6.6-90.43,38.6a23.84,23.84,0,0,0-10.53,22.8c5.73,45.39,29.29,192.33,107,335.84a36.12,36.12,0,0,1,3.46,24.78l-13.5,62.83-25,23.47h64.48l42.94-116.19-18.36-5.8a34.74,34.74,0,0,1-24.26-32.52L1912.88,2384c1.84-55.53-34-93.84-34-93.84l103-5Z"/><path class="cls-25" d="M1825.06,2674.46c-5.87,7.69,63.21,17.83,98.11,1,0,0,48.37-84.17,48.37-127.51,0,0-3.84-8.84-32.24-6.83,0,0-16.25,99.66-33.4,110.83s-48,1.13-48,1.13S1833.72,2663.13,1825.06,2674.46Z"/><path class="cls-26" d="M1968.79,2292c-.55-.95-110.88-13.27-110.88-13.27s3.61,33.54-7.67,79.72S1677,2604.67,1677,2604.67l17,53.84c-52.51,18.29-104.17,21.22-155,9.33l105.26-63.17s98.51-335.71,158.85-395.6l110.59-38.26Z"/><path class="cls-27" d="M2216.21,2096.63s63.57,94.54,68.78,137.67-17.41,60.65-84.1,63.54-244.75,2.84-244.75,2.84l-152-129.87s110.74-39.51,139.53-50.69S2216.21,2096.63,2216.21,2096.63Z"/><path class="cls-28" d="M1687.54,2640.38s18.28,17.71,5.93,37.42c0,0-144.85,25.67-184.18,14,0,0,8.16-18.64,52.45-39.85l-3.27,2.51a5.29,5.29,0,0,0,3.5,9.49C1591.15,2662.3,1651.54,2657,1687.54,2640.38Z"/><path class="cls-29" d="M1999.65,1542.61c9.93-1.65,46.44-6.15,52.47,15.75a4.08,4.08,0,0,0,6.66,1.87c11.51-10.3,38.65-29.66,68.42-16,26.28,12.06,23.85,37.17,19.31,52.57a4.1,4.1,0,0,0,6.18,4.65c22.93-15.44,75.77-43,109.61,2.44,31.56,42.39,5.82,71.81-11.51,85.19a4.08,4.08,0,0,0,2.15,7.27c12.64,1.25,30.06,8.2,38.07,35.23,12.55,42.36-65.16,77.56-74.31,81.54a4.06,4.06,0,0,1-1.82.33l-157-8a4.1,4.1,0,0,1-3.08-1.65L1958.55,1674a4.13,4.13,0,0,1-.63-3.66l38.51-124.92A4.06,4.06,0,0,1,1999.65,1542.61Z"/><path class="cls-30" d="M2044.31,2084.11s-74-70.48-110.46-117.16a99.08,99.08,0,0,1-16.77-89.15c16.63-56,46.2-114.09,48.89-123.12,4.14-13.85,87.13-13.28,87.13-13.28s163.33,106,227.49,285.55l-72.06,22.44s-42.65-71.54-84.78-117c0,0,72.91,96.31,75.48,135.74Z"/><path class="cls-31" d="M1955.94,1677.28c.86,2.88,22.53,74.7,24.22,76.19s47.51,4,69.07-10.79l-36.58-76.58Z"/><path class="cls-32" d="M1894.71,1576s-18.07,38.41-.13,98.23,50.16,66,71.12,52,48.35-39.3,53.34-92.83S1919.48,1527.47,1894.71,1576Z"/><path class="cls-33" d="M1979.15,1628.63s-33.26-81.24-88.47-33l-4.78,20.5s-50.64-16.16-32.39-61.93,78.57-82,132.27-50.27,72.87,74.38,68.61,116.43S2019,1647,2019,1647s-5.11-31.17-19.77-37.14-15.09,17.49-15.09,17.49Z"/><path class="cls-34" d="M1991.42,1630s-17.34-41.66,8.8-42.32,14.23,40.08,8.56,54.91Z"/><path class="cls-35" d="M1893.51,2089.35l54.38-52.42,75.24,31.78s74.89,11.6,117.75,0l42.86-11.6,96.85-30.16,15.22,43a25.88,25.88,0,0,1-9.46,29.74c-8.38,6-18.2,12.5-24.46,15.24-12.76,5.58-314.43-3.86-314.43-3.86Z"/><path class="cls-36" d="M2099.32,2114.06l-.73,0-315.47-.35a14.12,14.12,0,1,1,0-28.24l315.48.35a14.12,14.12,0,0,1,.69,28.22Z"/><path class="cls-37" d="M1499.52,1827.63h262.73a50.07,50.07,0,0,1,45.29,28.71L1929,2113.89H1602.5a30.44,30.44,0,0,1-28.31-19.25L1480,1856.32A21,21,0,0,1,1499.52,1827.63Z"/><path class="cls-5" d="M1684.62,1959.68c5.69,17.69,1.48,34.87-9.4,38.37s-24.32-8-30-25.69-1.49-34.86,9.39-38.37S1678.92,1942,1684.62,1959.68Z"/><path class="cls-38" d="M2540.24,2125.58a11.07,11.07,0,0,0-3-10.08,15,15,0,0,0-10.84-4.44H1105.53a16.9,16.9,0,0,0-13.63,6.48,12.46,12.46,0,0,0-1.05,13.46l15.4,28.94c3.52,6.63,11.16,10.87,19.57,10.87H2516.69c7.82,0,14.54-4.81,16-11.48Z"/></g></g></svg>