<svg xmlns="http://www.w3.org/2000/svg" xmlns:xlink="http://www.w3.org/1999/xlink" viewBox="0 0 2892.05 2800"><defs><style>.cls-1{fill:none;}.cls-2{isolation:isolate;}.cls-3{fill:url(#linear-gradient);}.cls-4{fill:#bdd0fb;}.cls-11,.cls-12,.cls-5,.cls-8{fill:#fff;}.cls-5{mix-blend-mode:soft-light;}.cls-6{fill:url(#linear-gradient-2);}.cls-7{fill:url(#linear-gradient-3);}.cls-8{opacity:0.67;}.cls-9{fill:url(#linear-gradient-4);}.cls-10{fill:#91b3fa;}.cls-11{opacity:0.78;}.cls-13{fill:url(#linear-gradient-5);}.cls-14{fill:url(#linear-gradient-6);}.cls-15{fill:url(#linear-gradient-7);}.cls-16{fill:url(#linear-gradient-8);}.cls-17{fill:url(#linear-gradient-9);}.cls-18{fill:url(#linear-gradient-10);}.cls-19{fill:url(#linear-gradient-11);}.cls-20{fill:url(#linear-gradient-12);}.cls-21{fill:url(#linear-gradient-13);}.cls-22{fill:url(#linear-gradient-14);}.cls-23{fill:url(#linear-gradient-15);}.cls-24{fill:url(#linear-gradient-16);}.cls-25{fill:url(#linear-gradient-17);}.cls-26{fill:url(#linear-gradient-18);}.cls-27{fill:url(#linear-gradient-19);}.cls-28{fill:url(#linear-gradient-20);}.cls-29{fill:url(#linear-gradient-21);}.cls-30{fill:url(#linear-gradient-22);}.cls-31{fill:url(#linear-gradient-23);}.cls-32{clip-path:url(#clip-path);}.cls-33{fill:url(#linear-gradient-24);}.cls-34{fill:url(#linear-gradient-25);}.cls-35{fill:url(#linear-gradient-26);}</style><linearGradient id="linear-gradient" x1="3277.31" y1="3113.33" x2="1061" y2="1125.17" gradientUnits="userSpaceOnUse"><stop offset="0" stop-color="#dae3fe"/><stop offset="1" stop-color="#e9effd"/></linearGradient><linearGradient id="linear-gradient-2" x1="-1252.49" y1="2214.2" x2="-675.46" y2="483.11" gradientTransform="matrix(-1, 0, 0, 1, 353.14, 0)" gradientUnits="userSpaceOnUse"><stop offset="0" stop-color="#09005d"/><stop offset="1" stop-color="#1a0f91"/></linearGradient><linearGradient id="linear-gradient-3" x1="3521.79" y1="405" x2="-529.81" y2="3187.42" gradientUnits="userSpaceOnUse"><stop offset="0" stop-color="#ff928e"/><stop offset="1" stop-color="#fe7062"/></linearGradient><linearGradient id="linear-gradient-4" x1="-3.51" y1="2393.03" x2="-2574.1" y2="3018.31" gradientTransform="matrix(1, 0, 0, -1, 2550.55, 5318.86)" xlink:href="#linear-gradient-2"/><linearGradient id="linear-gradient-5" x1="2089.11" y1="584.42" x2="1701.69" y2="1147.94" gradientUnits="userSpaceOnUse"><stop offset="0" stop-color="#4f52ff"/><stop offset="1" stop-color="#4042e2"/></linearGradient><linearGradient id="linear-gradient-6" x1="1271.8" y1="3218.27" x2="1627.45" y2="2597.63" gradientTransform="matrix(1, 0, 0, 1, 0, 0)" xlink:href="#linear-gradient-2"/><linearGradient id="linear-gradient-7" x1="1632.82" y1="2287.88" x2="1597.13" y2="2599.3" gradientUnits="userSpaceOnUse"><stop offset="0" stop-color="#febbba"/><stop offset="1" stop-color="#ff928e"/></linearGradient><linearGradient id="linear-gradient-8" x1="1519.93" y1="3360.45" x2="1875.58" y2="2739.81" gradientTransform="matrix(1, 0, 0, 1, 0, 0)" xlink:href="#linear-gradient-2"/><linearGradient id="linear-gradient-9" x1="1923.48" y1="2321.19" x2="1887.79" y2="2632.6" xlink:href="#linear-gradient-7"/><linearGradient id="linear-gradient-10" x1="1991.53" y1="1449.44" x2="850.27" y2="3220.36" gradientTransform="matrix(1, 0, 0, 1, 0, 0)" xlink:href="#linear-gradient-2"/><linearGradient id="linear-gradient-11" x1="1781.65" y1="528.09" x2="776.08" y2="2734.77" xlink:href="#linear-gradient-5"/><linearGradient id="linear-gradient-12" x1="1349.1" y1="464.19" x2="1488.18" y2="787.55" gradientTransform="translate(311.87 -382.67) rotate(5.3)" xlink:href="#linear-gradient-7"/><linearGradient id="linear-gradient-13" x1="-563.72" y1="-281.36" x2="-805.42" y2="38.4" gradientTransform="translate(2390.17 149.18) rotate(-28.71)" xlink:href="#linear-gradient-7"/><linearGradient id="linear-gradient-14" x1="-748.31" y1="-204.57" x2="-459.59" y2="-204.57" gradientTransform="translate(2390.17 149.18) rotate(-28.71)" xlink:href="#linear-gradient-2"/><linearGradient id="linear-gradient-15" x1="1807.84" y1="5670.37" x2="1946.91" y2="5993.71" gradientTransform="translate(2390.17 149.18) rotate(-28.71)" xlink:href="#linear-gradient-7"/><linearGradient id="linear-gradient-16" x1="2236.53" y1="75.17" x2="974.32" y2="1079.35" xlink:href="#linear-gradient-5"/><linearGradient id="linear-gradient-17" x1="1886.43" y1="1054.06" x2="1790.74" y2="1224.36" gradientTransform="matrix(1, 0, 0, 1, 0, 0)" xlink:href="#linear-gradient-2"/><linearGradient id="linear-gradient-18" x1="1330.38" y1="1220.19" x2="1635.08" y2="1220.19" xlink:href="#linear-gradient-7"/><linearGradient id="linear-gradient-19" x1="540.28" y1="3404.53" x2="733.73" y2="3404.53" gradientTransform="translate(4549.16 -1635.38) rotate(55.64)" xlink:href="#linear-gradient-7"/><linearGradient id="linear-gradient-20" x1="1916.16" y1="873.78" x2="2156.04" y2="551.98" gradientTransform="matrix(1, 0, 0, 1, 0, 0)" xlink:href="#linear-gradient-2"/><linearGradient id="linear-gradient-21" x1="2027.09" y1="700.33" x2="2689.57" y2="312.14" xlink:href="#linear-gradient-3"/><linearGradient id="linear-gradient-22" x1="3144.08" y1="195.08" x2="2699.39" y2="380.36" xlink:href="#linear-gradient-7"/><linearGradient id="linear-gradient-23" x1="2376.14" y1="591.33" x2="2896.82" y2="275.2" xlink:href="#linear-gradient-3"/><clipPath id="clip-path"><path class="cls-1" d="M2775.22,657.4c-6.06-6.16-19.26-29.94-30.58-91.41-10.93-59.4-17-136.45-17-217s6-157.55,17-217c11.32-61.47,24.52-85.24,30.58-91.4,6.06,6.16,19.26,29.93,30.57,91.4,10.94,59.41,97.24,136.46,97.24,217s-86.3,157.56-97.24,217C2794.48,627.46,2781.28,651.24,2775.22,657.4Z"/></clipPath><linearGradient id="linear-gradient-24" x1="2918.65" y1="338.13" x2="2442.75" y2="365.44" gradientTransform="matrix(1, 0, 0, 1, 0, 0)" xlink:href="#linear-gradient-2"/><linearGradient id="linear-gradient-25" x1="2017.18" y1="507.21" x2="1999.62" y2="65.48" gradientTransform="matrix(1, 0, 0, 1, 0, 0)" xlink:href="#linear-gradient-2"/><linearGradient id="linear-gradient-26" x1="2076.31" y1="622.3" x2="2193.69" y2="622.3" xlink:href="#linear-gradient-7"/></defs><g class="cls-2"><g id="레이어_2" data-name="레이어 2"><g id="Illustration"><path class="cls-3" d="M2538.77,2425.13c-74.69,77-90.35,88.08-141.51,122.24-499,333.18-1221,252.65-1397.38,219.83-284.52-53-424.26-71.65-630.61-258.09C-99.64,2085.47-76.84,1201.72,281.47,654.28,324,589.37,675.46,85.72,1247.1,11c14-1.83,676.23-89.28,1123.06,285.07,64,53.59,166.9,150.25,262.35,297.67C2981.53,1132.77,2982.64,1967.61,2538.77,2425.13Z"/><path class="cls-4" d="M230,16.26c-3.73-11.51,9.69-21,19.39-13.73C347.86,76,590.14,302,586.57,745.39,582.09,1301.74,719.16,1489,875.33,1595c0,0-201.94-35.23-348-224.43C168.8,906,296.28,220.94,230,16.26Z"/><path class="cls-5" d="M317.18,180c18.08,59.83,35,120,49.63,180.65q22.47,90.9,39.34,183c11,61.38,20.8,122.95,28,184.85,7.48,61.87,12.29,124,16.9,186.37,4.95,62.32,9.59,125.13,20.68,187.66s29.63,124.51,59,181.36c7.35,14.16,15,28.25,23.38,41.75,8.14,13.66,16.9,27,25.88,40.1a680.14,680.14,0,0,0,59.63,74.69c43.41,46.79,93.92,86.94,148.24,119.61a12.08,12.08,0,0,0,12.76-20.52l0,0c-13-8.32-25.87-16.78-38.32-25.78-6.3-4.4-12.4-9.08-18.58-13.63-6-4.79-12.18-9.34-18-14.3a638.06,638.06,0,0,1-66.65-63.2c-41.45-45-76.39-96.5-104.59-150.76a607.59,607.59,0,0,1-35.11-84.64,689.9,689.9,0,0,1-22.45-89.25c-11.22-60.64-16.33-122.77-21.73-185S463.75,788,455.25,725.75q-6.25-46.68-14.18-93.09c-2.55-15.49-5.4-30.92-8.22-46.35q-4.47-23.1-9.21-46.15Q404.4,448,379.5,357.3C362.6,296.93,344.11,237,323.34,178a3.24,3.24,0,0,0-6.16,2Z"/><path class="cls-4" d="M611.3,1806.41c-3.87,21.95-28.91,32.83-47.75,20.91-104-65.77-381.11-278.29-431.28-700C89.9,771.19,33.08,582.11,1.34,498.07c-6.71-17.78,13.17-33.79,29.12-23.47C206.49,588.37,751.43,1010.75,611.3,1806.41Z"/><path class="cls-5" d="M581.59,1811.78a8,8,0,0,1-1.33,1,8.7,8.7,0,0,1-12-2.67c-2.93-4.6-293.24-465.6-374.52-958.11a8.71,8.71,0,0,1,17.18-2.83c80.68,488.92,369.12,947,372,951.6A8.71,8.71,0,0,1,581.59,1811.78Z"/><path class="cls-6" d="M209.84,2559.42A45.29,45.29,0,0,0,255,2604.56H2698.2a45.29,45.29,0,0,0,45.18-45.14l20.33-1404c0-24.82-29.25-73.29-82.85-69.65L293.11,1024a113.85,113.85,0,0,0-116.82,116.45Z"/><path class="cls-7" d="M254.44,2516.12a42.87,42.87,0,0,0,42.75,42.74H2639.28a42.86,42.86,0,0,0,42.74-42.74l19.19-1274.59c-2.26-76.7-69.51-104.27-110.27-102.64L302.5,1077.49a80,80,0,0,0-82.09,81.89Z"/><path class="cls-8" d="M2656.72,1910.6h-.1a6.27,6.27,0,0,1-6.17-6.36l1.52-103.37a6.26,6.26,0,0,1,6.26-6.17h.09a6.27,6.27,0,0,1,6.17,6.36L2663,1904.43A6.27,6.27,0,0,1,2656.72,1910.6Z"/><path class="cls-8" d="M2660.44,1657.3h-.1a6.27,6.27,0,0,1-6.17-6.36L2660,1255c-.11-23.52-7.24-42.29-21.21-55.68-26.08-25-67.49-23.71-69.23-23.63l-731.44-19.61a6.26,6.26,0,0,1-6.09-6.43,6,6,0,0,1,6.43-6.09l731,19.61c4.55-.26,48.63-1,78,27.1,16.52,15.83,25,37.63,25.08,64.79l-5.81,396A6.27,6.27,0,0,1,2660.44,1657.3Z"/><rect class="cls-9" x="11.64" y="2597.75" width="2880.41" height="123.36" rx="5.65" transform="translate(2903.69 5318.86) rotate(180)"/><path class="cls-10" d="M2006.35,422.79,556.63,413.92A83,83,0,0,0,473.25,501L573,2560.7H2186.24l89.58-1840.23Z"/><path class="cls-4" d="M2066.63,711.65a83,83,0,0,1-79.81-89.47l15.54-196.68L2276.1,719.27Z"/><path class="cls-11" d="M1238.13,816c130.14-.2,629.74-1.8,755.89-2.2,15.92-.06,28.55,15.13,27.91,33.52h0c-.6,17.5-13.06,31.45-28.21,31.58l-755.56,6.44c-14.55.12-26.68-12.59-28-29.33l-.33-4.24C1208.37,832.58,1221.49,816,1238.13,816Z"/><path class="cls-11" d="M1232.19,960.42c130.14-.2,629.74-1.79,755.9-2.2,15.91-.05,28.54,15.13,27.91,33.52h0c-.6,17.5-13.07,31.45-28.22,31.58l-755.55,6.44c-14.55.12-26.68-12.59-28-29.33l-.33-4.23C1202.44,977.06,1215.55,960.45,1232.19,960.42Z"/><path class="cls-11" d="M780.89,1166.31c201,.14,972.56-.13,1167.39-.2,24.57,0,44.52,15.21,44.08,33.61h0c-.42,17.5-19.26,31.43-42.66,31.52L783,1235.68c-22.48.08-41.58-12.66-44.07-29.41l-.63-4.24C735.42,1182.88,755.19,1166.29,780.89,1166.31Z"/><path class="cls-11" d="M771.6,1317.94c156.45-.68,757-4.1,908.7-5,19.13-.11,34.55,15,34.08,33.42h0c-.44,17.51-15.21,31.51-33.42,31.69l-908.22,9.21c-17.49.17-32.27-12.5-34.1-29.23l-.46-4.24C736.1,1334.69,751.6,1318,771.6,1317.94Z"/><path class="cls-11" d="M778.91,1516.47c201,.14,972.56-.14,1167.39-.21,24.58,0,44.53,15.22,44.09,33.61h0c-.42,17.5-19.27,31.43-42.66,31.52L781,1585.83c-22.47.09-41.57-12.66-44.06-29.41l-.63-4.24C733.45,1533,753.21,1516.45,778.91,1516.47Z"/><path class="cls-11" d="M761.43,1670.62c157.19.28,760.61.57,913,.63,19.22,0,34.63,15.25,34,33.64h0c-.56,17.5-15.47,31.41-33.77,31.48L762.16,1740c-17.58.07-32.35-12.69-34.08-29.44l-.44-4.24C725.66,1687.14,741.33,1670.58,761.43,1670.62Z"/><path class="cls-11" d="M769,1873.76c201,.15,972.56-.13,1167.39-.2,24.58,0,44.53,15.22,44.09,33.61h0c-.42,17.5-19.27,31.43-42.66,31.52l-1166.74,4.44c-22.47.09-41.57-12.66-44.06-29.41l-.63-4.24C723.54,1890.33,743.3,1873.75,769,1873.76Z"/><path class="cls-11" d="M756.87,2026.09c157.18.29,760.61.57,913,.64,19.22,0,34.63,15.25,34.05,33.63h0c-.56,17.5-15.48,31.41-33.77,31.49l-912.54,3.6c-17.58.07-32.35-12.7-34.08-29.44l-.44-4.24C721.1,2042.62,736.77,2026.06,756.87,2026.09Z"/><path class="cls-11" d="M780.89,2226.91c201,.14,972.56-.13,1167.39-.2,24.57,0,44.52,15.21,44.08,33.6h0c-.42,17.51-19.26,31.44-42.66,31.53L783,2296.28c-22.48.08-41.58-12.67-44.07-29.41l-.63-4.24C735.42,2243.48,755.19,2226.89,780.89,2226.91Z"/><path class="cls-11" d="M769.52,2395.74c155.2,0,751-.78,901.46-1,19,0,34.21,15.19,33.65,33.57h0c-.53,17.51-15.24,31.44-33.31,31.55l-901,5.21c-17.35.1-31.95-12.63-33.68-29.38l-.44-4.23C734.22,2412.33,749.67,2395.74,769.52,2395.74Z"/><path class="cls-12" d="M1210.62,534.13V751l-11.23-.05q-18.48-124.66-58.7-171.77-33.09-39.45-97.9-40.28-16.26-.2-17.88,1.31-3.26,2.28-3.25,20V975.41q0,22.29,3.25,28.43,1.63,3.07,11.38,6.47t37.33,5.54q27.51,2.11,74.32,1.83v7.63l-355.29,2.32v-7.74q47.16-.28,75.15-2.78t37.82-6q9.84-3.52,12.71-8.57t2.87-26.64V559.75q0-20.06-4.91-21.68c-1.65-.52-7.39-.86-17.25-1q-64.15-.81-98.1,37.57-41.45,47.72-62.22,172.77l-11.65,0V528Z"/><path class="cls-13" d="M1758.13,724.81s233,283.73,318.67,215.36-145.68-441-145.68-441Z"/><path class="cls-14" d="M1767.67,2567.06a16.06,16.06,0,0,0-.43-4.22c-21-83.41-125.46-135.36-125.46-135.36l-41.38,3.24c-23.8,73.52-20.74,118.61-16.92,138.69.11.56.28,1.1.43,1.64C1618,2574.1,1688.3,2576.1,1767.67,2567.06Z"/><path class="cls-15" d="M1583.76,2369.09l17.52,84.36c1.29,6.19,6,10.82,11.79,11.36a116.56,116.56,0,0,0,27.15-.44c9-1.32,15.34-10.51,13.74-20.37l-12.19-74.91Z"/><path class="cls-16" d="M2134.22,2563.38a12.71,12.71,0,0,0-1-1.89c-22.16-31-78.6-92.62-190.13-119.36l-53.5-1.69s-23.82,41.41-24.27,118.11c12.22,5,35.86,10.38,81.56,11.66C2017.52,2572.18,2101.32,2566.1,2134.22,2563.38Z"/><path class="cls-17" d="M1879.67,2359.36c.59,4,7.93,64.6,10.77,88.1.67,5.58,4.72,9.9,9.82,10.51,9.11,1.09,23.85,2.08,36.75-.56,7-1.43,12-8.11,12-15.88v-95.15Z"/><path class="cls-18" d="M1836.75,1253.19s129,490.42,126.71,1107.57a23.89,23.89,0,0,1-19,23.28c-16.23,3.42-40.08,7.47-59.83,6.92a22.16,22.16,0,0,1-21.12-18.51c-18.09-106.11-121.93-703.88-181.1-800.93,0,0-38.92,532.41-26.48,808.62a13.09,13.09,0,0,1-11.55,13.62,220.47,220.47,0,0,1-48-.14,17.51,17.51,0,0,1-15.61-14.87c-12.89-89.8-87.07-624.35-83.92-1009.42.18-21.72,57.43-116.14,57.43-116.14Z"/><path class="cls-19" d="M1925.63,501.53c-177.6-25.69-372.68-2.12-467.36,9.81a124.87,124.87,0,0,0-78.9,42.35c-80.11,92.72-255.92,346.56-49,602.34,26.48-14.7,64.11-38.27,89.67-65.55-22.9-64.54-24.77-147,23.21-248.14a234.59,234.59,0,0,0,6.13,23.76c66.12,209.5,69.65,383.84,69.5,424a13.26,13.26,0,0,0,8.33,12.39c87,34.88,254.56,14.12,310.8,5.74a18.9,18.9,0,0,0,15.82-21.46c-19.78-143.32,47.39-352.91,100.8-490.48C1975.75,741.94,1936.68,516.77,1925.63,501.53Z"/><path class="cls-20" d="M1642.57,293.2l-24.52,202.69a18.92,18.92,0,0,0,13.43,20.48c26.62,7.79,83.59,19.57,135.65-1.85a22.15,22.15,0,0,0,13.07-25.2l-31-142.66Z"/><path class="cls-21" d="M1801.53,149.15c1.53,2.79,34.35,210.9,34.35,210.9l-119.23,16.21-60.41-192.62S1775.91,102.35,1801.53,149.15Z"/><path class="cls-22" d="M1700.43,202.8a17.35,17.35,0,0,0-3.47,14.84L1720.48,320a17.06,17.06,0,0,0,1.67,4.43c4.27,7.68,19.81,31.06,43.33,13.77,20-14.73,38.67-28,54.88-30.68a17.27,17.27,0,0,1,19.8,14.51c3,19.54,8.28,59.08,8,94.88a17.2,17.2,0,0,1-16,17c-23.61,1.66-69.82,3.53-108.06-3.33a17.27,17.27,0,0,1-13.39-11.66c-8.72-26.69-33.48-101.4-43.72-121.42-9.51-18.59-37.19-21.76-50-22.2a17.42,17.42,0,0,1-12.57-6c-9.54-11-24.46-35.56,4.3-59.54a17.29,17.29,0,0,0,2.18-24c-10.41-13-19.47-34.08,2.86-56.12,22.6-22.32,48.15-16.67,64.35-9.11,7.17,3.34,16,1.89,21.15-4.13,2.28-2.68,5.66-4.5,10.66-3.92,9.42,1.08,17.86-5.12,19-14.54,2-16.15,10.63-35.14,39.21-40.58,52.41-10,78.39,42.53,77.35,79.37s-58.48,44.43-91,38.22C1730.51,170.38,1709.76,191.35,1700.43,202.8Z"/><path class="cls-23" d="M1676,335.23s-1-64.27-27-70.39-54.11,12.62-32,51.17C1644.65,364,1676,335.23,1676,335.23Z"/><path class="cls-24" d="M1434.48,826.67c-35.08-96-22.35-211.91-22.22-213.07l9.67,1.1c-.13,1.14-12.59,114.84,21.69,208.63Z"/><path class="cls-25" d="M1677.72,1559a4.85,4.85,0,0,1-4.7-3.65c-10.7-41.27-90.84-86.63-91.64-87.08a4.87,4.87,0,1,1,4.76-8.49c3.44,1.93,84.56,47.85,96.3,93.13a4.87,4.87,0,0,1-3.49,5.93A4.72,4.72,0,0,1,1677.72,1559Z"/><path class="cls-26" d="M1420.05,1090.48c-25.56,27.28-63.19,50.85-89.67,65.55,39.54,48.88,93,97.83,163.89,145.74l8.57,19.23a47.83,47.83,0,0,0,41.4,28.26c99,4.72,126.4-16.28,35.26-79.85C1579.5,1269.41,1462.94,1211.41,1420.05,1090.48Z"/><path class="cls-27" d="M2147.93,660.85s-124.93,129.87-153.79,177,3.27,132.91,68.83,113,141.89-245.25,141.89-245.25Z"/><path class="cls-28" d="M1938.82,476.41s109.79,289.53,144.47,349.76c40.26,69.91,157.84,25.36,152-33.15s-143.23-300.36-143.23-300.36Z"/><polygon class="cls-29" points="2087.16 265.5 2769.49 28.93 2762.32 669.14 2068.51 514.33 2087.16 265.5"/><ellipse class="cls-30" cx="2770.13" cy="350.89" rx="67.04" ry="329.01"/><path class="cls-31" d="M2775.22,657.4c-6.06-6.16-19.26-29.94-30.58-91.41-10.93-59.4-17-136.45-17-217s6-157.55,17-217c11.32-61.47,24.52-85.24,30.58-91.4,6.06,6.16,19.26,29.93,30.57,91.4,10.94,59.41,17,136.46,17,217s-6,157.56-17,217C2794.48,627.46,2781.28,651.24,2775.22,657.4Z"/><g class="cls-32"><path class="cls-33" d="M2861.14,346.58c0,55.9-30.12,101.22-89.72,101.22S2663.5,402.48,2663.5,346.58s48.32-101.22,107.92-101.22S2861.14,290.68,2861.14,346.58Z"/></g><path class="cls-34" d="M1977.11,251.74c32.1-3.73,78.12-5.07,127.89,6.33-16.4,85.65-13.92,174.92,5,267.36H1969.68a45.5,45.5,0,0,1-45-38.36c-7-44.31-15.54-118.78-6.42-178.6A67.3,67.3,0,0,1,1977.11,251.74Z"/><path class="cls-10" d="M2061.35,319H1952a11.6,11.6,0,0,1-9.74-17.91,4.44,4.44,0,0,1,7.45,4.83,2.72,2.72,0,0,0,2.29,4.19h109.36a2.72,2.72,0,0,0,2.72-2.72v-7.78a2.72,2.72,0,0,0-2.72-2.72H1951.18a4.44,4.44,0,1,1,0-8.88h110.17a11.61,11.61,0,0,1,11.6,11.6v7.78A11.62,11.62,0,0,1,2061.35,319Z"/><path class="cls-10" d="M2051.6,367.4H1942.24a11.6,11.6,0,0,1-9.75-17.9,4.45,4.45,0,0,1,7.47,4.82,2.72,2.72,0,0,0,2.28,4.2H2051.6a2.72,2.72,0,0,0,2.72-2.72V348a2.72,2.72,0,0,0-2.72-2.72H1941.42a4.45,4.45,0,0,1,0-8.89H2051.6A11.62,11.62,0,0,1,2063.2,348v7.78A11.61,11.61,0,0,1,2051.6,367.4Z"/><path class="cls-8" d="M2186.31,249.81a4.44,4.44,0,0,1-1.35-8.68L2701.74,76.68a4.44,4.44,0,1,1,2.7,8.47L2187.65,249.6A4.46,4.46,0,0,1,2186.31,249.81Z"/><path class="cls-8" d="M2116.42,278.37a4.44,4.44,0,0,1-1.68-8.55l26.6-10.87a4.44,4.44,0,0,1,3.36,8.22L2118.1,278A4.33,4.33,0,0,1,2116.42,278.37Z"/><path class="cls-10" d="M2061.35,424.13H1952a11.61,11.61,0,0,1-9.74-17.91,4.44,4.44,0,0,1,7.46,4.82,2.72,2.72,0,0,0,2.28,4.2h109.36a2.72,2.72,0,0,0,2.72-2.72v-7.78a2.72,2.72,0,0,0-2.72-2.72H1951.18a4.44,4.44,0,1,1,0-8.88h110.17a11.61,11.61,0,0,1,11.6,11.6v7.78A11.62,11.62,0,0,1,2061.35,424.13Z"/><path class="cls-10" d="M2071.59,487.09H1962.23a11.61,11.61,0,0,1-9.75-17.91A4.45,4.45,0,0,1,1960,474a2.71,2.71,0,0,0,2.28,4.19h109.36a2.72,2.72,0,0,0,2.72-2.71V467.7a2.73,2.73,0,0,0-2.72-2.72H1961.41a4.44,4.44,0,0,1,0-8.88h110.18a11.61,11.61,0,0,1,11.6,11.6v7.79A11.61,11.61,0,0,1,2071.59,487.09Z"/><path class="cls-10" d="M2169.27,829.41a73.27,73.27,0,0,1-15.57-1.69,72,72,0,0,1-50.8-41.14l-87.37-194.12a4.44,4.44,0,0,1,8.1-3.64L2111,782.93A63.21,63.21,0,0,0,2155.59,819,61.89,61.89,0,0,0,2210,805.12c.82-.71,1.64-1.45,2.46-2.19a4.44,4.44,0,1,1,6,6.55c-.88.8-1.74,1.57-2.61,2.33A70.43,70.43,0,0,1,2169.27,829.41Z"/><path class="cls-10" d="M2006.66,566.38a4.43,4.43,0,0,1-4.05-2.62l-9.75-21.65a4.44,4.44,0,1,1,8.1-3.65l9.75,21.66a4.43,4.43,0,0,1-2.23,5.87A4.36,4.36,0,0,1,2006.66,566.38Z"/><path class="cls-10" d="M2845.16,345.3a4.45,4.45,0,0,1-4.43-4.13c-1.9-26.88-11.17-46.89-27.53-59.48-28.37-21.81-69.18-14.35-69.59-14.27a4.44,4.44,0,1,1-1.68-8.72c1.83-.35,45.05-8.34,76.63,15.91,18.5,14.2,28.94,36.38,31,65.93a4.44,4.44,0,0,1-4.11,4.75Z"/><path class="cls-35" d="M2100.63,586.2s35.59-30.21,63.4,0,33.32,82.94,27.66,85.51S2014.05,631.58,2100.63,586.2Z"/></g></g></g></svg>